# xmcd
#
# Track frame offsets:
#  150
#  15713
#  31407
#  47932
#  66446
#  82626
#  99601
#  118620
#  136768
#  152078
#  168047
#  184060
#
# Disc length: 2667 seconds
#
# Revision: 0
# Processed by: cddbd v1.5.2PL0 Copyright (c) Steve Scherf et al.
# Submitted via: Collectorz.com_Music_Collector 6.11
#
DISCID=910a690c
DTITLE=Nina Stern - Unendlich tief
DYEAR=2003
DGENRE=
TTITLE0=Ich will leben
TTITLE1=Was kostet die Welt
TTITLE2=Gebor'n um dich zu lieben (Duett mit Kurt Elsasser)
TTITLE3=Wie ein Stern
TTITLE4=Auf einmal (ist alles anders)
TTITLE5=Eine starke Frau
TTITLE6=Schwerelos durck Raum und Zeit
TTITLE7=Nur mit Dir (Duett mit Kurt Elsasser)
TTITLE8=Wenn unser Stern verglüht
TTITLE9=Du bist schuld
TTITLE10=Wegen dir
TTITLE11=Mitten ins Glück
EXTD=
EXTT0=
EXTT1=
EXTT2=
EXTT3=
EXTT4=
EXTT5=
EXTT6=
EXTT7=
EXTT8=
EXTT9=
EXTT10=
EXTT11=
PLAYORDER=
